<?xml version="1.0" encoding="UTF-8" standalone="no"?><svg xmlns="http://www.w3.org/2000/svg" xmlns:xlink="http://www.w3.org/1999/xlink" contentScriptType="application/ecmascript" contentStyleType="text/css" height="599px" preserveAspectRatio="none" style="width:656px;height:599px;" version="1.1" viewBox="0 0 656 599" width="656px" zoomAndPan="magnify"><defs><filter height="300%" id="f1sv91kkq120m4" width="300%" x="-1" y="-1"><feGaussianBlur result="blurOut" stdDeviation="2.0"/><feColorMatrix in="blurOut" result="blurOut2" type="matrix" values="0 0 0 0 0 0 0 0 0 0 0 0 0 0 0 0 0 0 .4 0"/><feOffset dx="4.0" dy="4.0" in="blurOut2" result="blurOut3"/><feBlend in="SourceGraphic" in2="blurOut3" mode="normal"/></filter></defs><g><rect fill="#FFFFFF" filter="url(#f1sv91kkq120m4)" height="79.0547" style="stroke: #000000; stroke-width: 2.0;" width="270" x="139.5" y="204.0156"/><rect fill="#FFFFFF" filter="url(#f1sv91kkq120m4)" height="122.4063" style="stroke: #000000; stroke-width: 2.0;" width="396.5" x="229" y="327.4219"/><line style="stroke: #A80036; stroke-width: 1.0; stroke-dasharray: 5.0,5.0;" x1="31" x2="31" y1="39.6094" y2="557.8828"/><line style="stroke: #A80036; stroke-width: 1.0; stroke-dasharray: 5.0,5.0;" x1="173.5" x2="173.5" y1="39.6094" y2="557.8828"/><line style="stroke: #A80036; stroke-width: 1.0; stroke-dasharray: 5.0,5.0;" x1="270" x2="270" y1="39.6094" y2="557.8828"/><line style="stroke: #A80036; stroke-width: 1.0; stroke-dasharray: 5.0,5.0;" x1="363.5" x2="363.5" y1="39.6094" y2="557.8828"/><line style="stroke: #A80036; stroke-width: 1.0; stroke-dasharray: 5.0,5.0;" x1="620" x2="620" y1="39.6094" y2="557.8828"/><rect fill="#FEFECE" filter="url(#f1sv91kkq120m4)" height="31.6094" style="stroke: #A80036; stroke-width: 1.5;" width="43" x="8" y="3"/><text fill="#000000" font-family="sans-serif" font-size="14" lengthAdjust="spacingAndGlyphs" textLength="29" x="15" y="24.5332">User</text><rect fill="#FEFECE" filter="url(#f1sv91kkq120m4)" height="31.6094" style="stroke: #A80036; stroke-width: 1.5;" width="43" x="8" y="556.8828"/><text fill="#000000" font-family="sans-serif" font-size="14" lengthAdjust="spacingAndGlyphs" textLength="29" x="15" y="578.416">User</text><rect fill="#FEFECE" filter="url(#f1sv91kkq120m4)" height="31.6094" style="stroke: #A80036; stroke-width: 1.5;" width="44" x="149.5" y="3"/><text fill="#000000" font-family="sans-serif" font-size="14" lengthAdjust="spacingAndGlyphs" textLength="30" x="156.5" y="24.5332">Main</text><rect fill="#FEFECE" filter="url(#f1sv91kkq120m4)" height="31.6094" style="stroke: #A80036; stroke-width: 1.5;" width="44" x="149.5" y="556.8828"/><text fill="#000000" font-family="sans-serif" font-size="14" lengthAdjust="spacingAndGlyphs" textLength="30" x="156.5" y="578.416">Main</text><rect fill="#FEFECE" filter="url(#f1sv91kkq120m4)" height="31.6094" style="stroke: #A80036; stroke-width: 1.5;" width="59" x="239" y="3"/><text fill="#000000" font-family="sans-serif" font-size="14" lengthAdjust="spacingAndGlyphs" textLength="45" x="246" y="24.5332">Loader</text><rect fill="#FEFECE" filter="url(#f1sv91kkq120m4)" height="31.6094" style="stroke: #A80036; stroke-width: 1.5;" width="59" x="239" y="556.8828"/><text fill="#000000" font-family="sans-serif" font-size="14" lengthAdjust="spacingAndGlyphs" textLength="45" x="246" y="578.416">Loader</text><rect fill="#FEFECE" filter="url(#f1sv91kkq120m4)" height="31.6094" style="stroke: #A80036; stroke-width: 1.5;" width="68" x="327.5" y="3"/><text fill="#000000" font-family="sans-serif" font-size="14" lengthAdjust="spacingAndGlyphs" textLength="54" x="334.5" y="24.5332">Reducer</text><rect fill="#FEFECE" filter="url(#f1sv91kkq120m4)" height="31.6094" style="stroke: #A80036; stroke-width: 1.5;" width="68" x="327.5" y="556.8828"/><text fill="#000000" font-family="sans-serif" font-size="14" lengthAdjust="spacingAndGlyphs" textLength="54" x="334.5" y="578.416">Reducer</text><rect fill="#FEFECE" filter="url(#f1sv91kkq120m4)" height="31.6094" style="stroke: #A80036; stroke-width: 1.5;" width="53" x="592" y="3"/><text fill="#000000" font-family="sans-serif" font-size="14" lengthAdjust="spacingAndGlyphs" textLength="39" x="599" y="24.5332">Action</text><rect fill="#FEFECE" filter="url(#f1sv91kkq120m4)" height="31.6094" style="stroke: #A80036; stroke-width: 1.5;" width="53" x="592" y="556.8828"/><text fill="#000000" font-family="sans-serif" font-size="14" lengthAdjust="spacingAndGlyphs" textLength="39" x="599" y="578.416">Action</text><polygon fill="#A80036" points="161.5,67.9609,171.5,71.9609,161.5,75.9609,165.5,71.9609" style="stroke: #A80036; stroke-width: 1.0;"/><line style="stroke: #A80036; stroke-width: 1.0;" x1="31.5" x2="167.5" y1="71.9609" y2="71.9609"/><text fill="#000000" font-family="sans-serif" font-size="13" lengthAdjust="spacingAndGlyphs" textLength="118" x="38.5" y="67.1045">Runs the application</text><line style="stroke: #A80036; stroke-width: 1.0;" x1="173.5" x2="215.5" y1="102.3125" y2="102.3125"/><line style="stroke: #A80036; stroke-width: 1.0;" x1="215.5" x2="215.5" y1="102.3125" y2="115.3125"/><line style="stroke: #A80036; stroke-width: 1.0;" x1="174.5" x2="215.5" y1="115.3125" y2="115.3125"/><polygon fill="#A80036" points="184.5,111.3125,174.5,115.3125,184.5,119.3125,180.5,115.3125" style="stroke: #A80036; stroke-width: 1.0;"/><text fill="#000000" font-family="sans-serif" font-size="13" lengthAdjust="spacingAndGlyphs" textLength="76" x="180.5" y="97.4561">Validate args</text><polygon fill="#A80036" points="258.5,141.6641,268.5,145.6641,258.5,149.6641,262.5,145.6641" style="stroke: #A80036; stroke-width: 1.0;"/><line style="stroke: #A80036; stroke-width: 1.0;" x1="173.5" x2="264.5" y1="145.6641" y2="145.6641"/><text fill="#000000" font-family="sans-serif" font-size="13" lengthAdjust="spacingAndGlyphs" textLength="73" x="180.5" y="140.8076">withFiles(dir)</text><line style="stroke: #A80036; stroke-width: 1.0;" x1="270.5" x2="312.5" y1="176.0156" y2="176.0156"/><line style="stroke: #A80036; stroke-width: 1.0;" x1="312.5" x2="312.5" y1="176.0156" y2="189.0156"/><line style="stroke: #A80036; stroke-width: 1.0;" x1="271.5" x2="312.5" y1="189.0156" y2="189.0156"/><polygon fill="#A80036" points="281.5,185.0156,271.5,189.0156,281.5,193.0156,277.5,189.0156" style="stroke: #A80036; stroke-width: 1.0;"/><text fill="#000000" font-family="sans-serif" font-size="13" lengthAdjust="spacingAndGlyphs" textLength="68" x="277.5" y="171.1592">validates dir</text><path d="M139.5,204.0156 L212.5,204.0156 L212.5,212.0156 L202.5,222.0156 L139.5,222.0156 L139.5,204.0156 " fill="#EEEEEE" style="stroke: #000000; stroke-width: 1.0;"/><rect fill="none" height="79.0547" style="stroke: #000000; stroke-width: 2.0;" width="270" x="139.5" y="204.0156"/><text fill="#000000" font-family="sans-serif" font-size="13" font-weight="bold" lengthAdjust="spacingAndGlyphs" textLength="28" x="154.5" y="218.5107">loop</text><text fill="#000000" font-family="sans-serif" font-size="11" font-weight="bold" lengthAdjust="spacingAndGlyphs" textLength="73" x="227.5" y="217.4346">[for each file]</text><polygon fill="#A80036" points="184.5,240.7188,174.5,244.7188,184.5,248.7188,180.5,244.7188" style="stroke: #A80036; stroke-width: 1.0;"/><line style="stroke: #A80036; stroke-width: 1.0;" x1="178.5" x2="269.5" y1="244.7188" y2="244.7188"/><text fill="#000000" font-family="sans-serif" font-size="13" lengthAdjust="spacingAndGlyphs" textLength="16" x="190.5" y="239.8623">file</text><polygon fill="#A80036" points="351.5,271.0703,361.5,275.0703,351.5,279.0703,355.5,275.0703" style="stroke: #A80036; stroke-width: 1.0;"/><line style="stroke: #A80036; stroke-width: 1.0;" x1="173.5" x2="357.5" y1="275.0703" y2="275.0703"/><text fill="#000000" font-family="sans-serif" font-size="13" lengthAdjust="spacingAndGlyphs" textLength="166" x="180.5" y="270.2139">add(file) - stores files by size</text><polygon fill="#A80036" points="351.5,308.4219,361.5,312.4219,351.5,316.4219,355.5,312.4219" style="stroke: #A80036; stroke-width: 1.0;"/><line style="stroke: #A80036; stroke-width: 1.0;" x1="173.5" x2="357.5" y1="312.4219" y2="312.4219"/><text fill="#000000" font-family="sans-serif" font-size="13" lengthAdjust="spacingAndGlyphs" textLength="70" x="180.5" y="307.5654">getResults()</text><path d="M229,327.4219 L302,327.4219 L302,335.4219 L292,345.4219 L229,345.4219 L229,327.4219 " fill="#EEEEEE" style="stroke: #000000; stroke-width: 1.0;"/><rect fill="none" height="122.4063" style="stroke: #000000; stroke-width: 2.0;" width="396.5" x="229" y="327.4219"/><text fill="#000000" font-family="sans-serif" font-size="13" font-weight="bold" lengthAdjust="spacingAndGlyphs" textLength="28" x="244" y="341.917">loop</text><text fill="#000000" font-family="sans-serif" font-size="11" font-weight="bold" lengthAdjust="spacingAndGlyphs" textLength="252" x="317" y="340.8408">[for each group of file with the the same size]</text><polygon fill="#A80036" points="281.5,364.125,271.5,368.125,281.5,372.125,277.5,368.125" style="stroke: #A80036; stroke-width: 1.0;"/><line style="stroke: #A80036; stroke-width: 1.0;" x1="275.5" x2="362.5" y1="368.125" y2="368.125"/><text fill="#000000" font-family="sans-serif" font-size="13" lengthAdjust="spacingAndGlyphs" textLength="53" x="287.5" y="363.2686">loadFile()</text><polygon fill="#A80036" points="351.5,394.4766,361.5,398.4766,351.5,402.4766,355.5,398.4766" style="stroke: #A80036; stroke-width: 1.0;"/><line style="stroke: #A80036; stroke-width: 1.0;" x1="270.5" x2="357.5" y1="398.4766" y2="398.4766"/><text fill="#000000" font-family="sans-serif" font-size="13" lengthAdjust="spacingAndGlyphs" textLength="58" x="277.5" y="393.6201">loaded file</text><line style="stroke: #A80036; stroke-width: 1.0;" x1="363.5" x2="405.5" y1="428.8281" y2="428.8281"/><line style="stroke: #A80036; stroke-width: 1.0;" x1="405.5" x2="405.5" y1="428.8281" y2="441.8281"/><line style="stroke: #A80036; stroke-width: 1.0;" x1="364.5" x2="405.5" y1="441.8281" y2="441.8281"/><polygon fill="#A80036" points="374.5,437.8281,364.5,441.8281,374.5,445.8281,370.5,441.8281" style="stroke: #A80036; stroke-width: 1.0;"/><text fill="#000000" font-family="sans-serif" font-size="13" lengthAdjust="spacingAndGlyphs" textLength="243" x="370.5" y="423.9717">if content the same then add to duplicates</text><polygon fill="#A80036" points="184.5,475.1797,174.5,479.1797,184.5,483.1797,180.5,479.1797" style="stroke: #A80036; stroke-width: 1.0;"/><line style="stroke: #A80036; stroke-width: 1.0;" x1="178.5" x2="362.5" y1="479.1797" y2="479.1797"/><text fill="#000000" font-family="sans-serif" font-size="13" lengthAdjust="spacingAndGlyphs" textLength="59" x="190.5" y="474.3232">duplicates</text><polygon fill="#A80036" points="608.5,505.5313,618.5,509.5313,608.5,513.5313,612.5,509.5313" style="stroke: #A80036; stroke-width: 1.0;"/><line style="stroke: #A80036; stroke-width: 1.0;" x1="173.5" x2="614.5" y1="509.5313" y2="509.5313"/><text fill="#000000" font-family="sans-serif" font-size="13" lengthAdjust="spacingAndGlyphs" textLength="151" x="180.5" y="504.6748">withDuplicates(duplicates)</text><polygon fill="#A80036" points="42.5,535.8828,32.5,539.8828,42.5,543.8828,38.5,539.8828" style="stroke: #A80036; stroke-width: 1.0;"/><line style="stroke: #A80036; stroke-width: 1.0;" x1="36.5" x2="619.5" y1="539.8828" y2="539.8828"/><text fill="#000000" font-family="sans-serif" font-size="13" lengthAdjust="spacingAndGlyphs" textLength="116" x="48.5" y="535.0264">Prints files to stdout</text><!--
@startuml
User -> Main: Runs the application
Main -> Main: Validate args
Main -> Loader: withFiles(dir)
Loader -> Loader: validates dir
loop for each file
  Loader -> Main: file
  Main -> Reducer: add(file) - stores files by size
end loop
Main -> Reducer: getResults()
loop for each group of file with the the same size
Reducer -> Loader: loadFile()
Loader -> Reducer: loaded file
Reducer -> Reducer: if content the same then add to duplicates
end loop
Reducer -> Main: duplicates
Main -> Action: withDuplicates(duplicates)
Action -> User: Prints files to stdout
@enduml

PlantUML version 1.2019.05(Sun Apr 21 02:45:36 AEST 2019)
(GPL source distribution)
Java Runtime: OpenJDK Runtime Environment
JVM: OpenJDK 64-Bit Server VM
Java Version: 1.8.0_202-release-1483-b58
Operating System: Windows 10
OS Version: 10.0
Default Encoding: Cp1252
Language: en
Country: AU
--></g></svg>